<svg xmlns="http://www.w3.org/2000/svg" width="32" height="32" viewBox="0 0 32 32"><path fill="#ffffff" d="M16 6.4c-5.85 0-10.4 3.66-16 9.6 4.82 5.07 8.86 9.6 16 9.6s12.38-5.73 16-9.5c-3.7-4.4-8.95-9.7-16-9.7zm0 18.13C9.66 24.53 5.84 20.6 1.48 16 6.67 10.58 10.8 7.47 16 7.47c6.16 0 10.97 4.44 14.56 8.6-3.52 3.67-8.3 8.46-14.56 8.46z"/><path fill="#ffffff" d="M16 9.6a6.4 6.4 0 10.01 12.81A6.4 6.4 0 0016 9.61zm0 11.73a5.34 5.34 0 11.01-10.67A5.34 5.34 0 0116 21.33z"/><path fill="#ffffff" d="M16 12.27a3.74 3.74 0 100 7.47 3.74 3.74 0 000-7.47zm0 6.4a2.67 2.67 0 110-5.34 2.67 2.67 0 010 5.34z"/></svg>